<svg width="138" height="38" viewBox="0 0 138 38" fill="none" xmlns="http://www.w3.org/2000/svg">
<path d="M0.155273 29.4448L13.2632 0.288574H18.6109L31.7553 29.4448H26.0887L14.8258 3.17687H16.9897L5.72686 29.4448H0.155273Z" fill="#3AA4CA"/>
<path fill-rule="evenodd" clip-rule="evenodd" d="M11.3904 16.2082C11.8633 16.1806 12.3155 16.2196 12.8381 16.2728C14.4125 16.4329 15.635 16.9248 16.7877 17.5203C17.9752 18.1338 19.0432 18.9284 20.7098 19.2035C21.9124 19.402 22.7498 19.5311 23.5023 19.3225C24.1957 19.1304 24.7628 18.6257 25.5501 17.8172L27.1092 16.2164L30.311 19.3346L28.7519 20.9354C27.2434 22.4843 26.0241 23.2614 24.6958 23.6295C23.4267 23.9812 22.0101 23.9479 19.982 23.6131C18.4168 23.3547 17.2088 22.8152 16.0852 22.2184C14.9397 21.6099 13.9388 20.877 12.386 20.7191C10.6935 20.547 9.52984 21.2558 8.98389 21.712L9.39544 20.6479L11.3904 16.2082Z" fill="url(#paint0_linear_103_1417)"/>
<path d="M35.8804 29.4243V7.35406H40.8001V13.4296L40.2213 11.6524C40.8827 10.1645 41.9163 9.00726 43.3632 8.26332C44.7689 7.47805 46.5466 7.10608 48.655 7.10608V12.0244C48.407 11.983 48.2002 11.9417 48.0349 11.9417C47.8282 11.9004 47.6628 11.9004 47.4561 11.9004C45.513 11.9004 43.942 12.479 42.7845 13.6362C41.6269 14.7521 41.0481 16.4467 41.0481 18.7198V29.4243H35.8804Z" fill="#3AA4CA"/>
<path d="M52.5825 29.4243V7.35406H57.5022V13.4296L56.9234 11.6524C57.5849 10.1645 58.6184 9.00726 60.0654 8.26332C61.471 7.47805 63.2487 7.10608 65.3572 7.10608V12.0244C65.1091 11.983 64.9024 11.9417 64.737 11.9417C64.5303 11.9004 64.3649 11.9004 64.1582 11.9004C62.2152 11.9004 60.6442 12.479 59.4866 13.6362C58.329 14.7521 57.7503 16.4467 57.7503 18.7198V29.4243H52.5825Z" fill="#3AA4CA"/>
<path d="M78.9999 29.7136C76.7674 29.7136 74.7417 29.2176 72.964 28.2257C71.1863 27.2751 69.7806 25.9112 68.7884 24.2167C67.7549 22.5222 67.2588 20.5797 67.2588 18.3892C67.2588 16.1574 67.7549 14.2148 68.7884 12.5203C69.822 10.8258 71.1863 9.50322 72.964 8.55263C74.7417 7.56071 76.7261 7.10608 78.9999 7.10608C81.2737 7.10608 83.3408 7.56071 85.1185 8.55263C86.8548 9.50322 88.2604 10.8258 89.294 12.5203C90.2862 14.2148 90.7823 16.1574 90.7823 18.3892C90.7823 20.5797 90.2862 22.5222 89.294 24.2167C88.2604 25.9526 86.8962 27.2751 85.0771 28.2257C83.2994 29.2176 81.2737 29.7136 78.9999 29.7136ZM78.9999 25.2913C80.2815 25.2913 81.3977 25.002 82.3899 24.4647C83.3821 23.8861 84.1676 23.1008 84.7051 22.0675C85.2838 20.993 85.5732 19.7944 85.5732 18.3892C85.5732 16.9426 85.2838 15.7441 84.7051 14.7108C84.1676 13.6776 83.3821 12.8923 82.3899 12.3137C81.3977 11.7764 80.2815 11.4871 79.0412 11.4871C77.801 11.4871 76.6847 11.7764 75.6925 12.3137C74.7003 12.8923 73.9148 13.6776 73.336 14.7108C72.7573 15.7441 72.4679 16.9426 72.4679 18.3892C72.4679 19.7944 72.7573 20.993 73.336 22.0675C73.9148 23.1008 74.7003 23.8861 75.6925 24.4647C76.6434 25.002 77.7596 25.2913 78.9999 25.2913Z" fill="#3AA4CA"/>
<path d="M96.2808 37.7317C95.2059 37.7317 94.131 37.525 93.0561 37.1944C91.9812 36.8224 91.113 36.3265 90.3689 35.7065L92.436 31.9042C92.9321 32.4001 93.5522 32.7721 94.2137 33.0201C94.8752 33.3094 95.5366 33.4334 96.2394 33.4334C97.149 33.4334 97.9345 33.1854 98.5132 32.7308C99.092 32.2761 99.6295 31.4909 100.126 30.3749L101.407 27.4818L101.821 26.8619L110.172 7.35413H115.133L104.797 31.2015C104.136 32.8547 103.35 34.1773 102.523 35.1279C101.655 36.0785 100.704 36.7398 99.7122 37.1531C98.6786 37.525 97.521 37.7317 96.2808 37.7317ZM100.828 30.2096L90.865 7.35413H96.2394L104.342 26.4073L100.828 30.2096Z" fill="#3AA4CA"/>
<path d="M126.047 29.7136C123.815 29.7136 121.789 29.2176 120.011 28.2257C118.233 27.2751 116.828 25.9112 115.836 24.2167C114.802 22.5222 114.306 20.5797 114.306 18.3892C114.306 16.1574 114.802 14.2148 115.836 12.5203C116.869 10.8258 118.233 9.50322 120.011 8.55263C121.789 7.56071 123.773 7.10608 126.047 7.10608C128.321 7.10608 130.388 7.56071 132.166 8.55263C133.902 9.50322 135.308 10.8258 136.341 12.5203C137.333 14.2148 137.829 16.1574 137.829 18.3892C137.829 20.5797 137.333 22.5222 136.341 24.2167C135.308 25.9526 133.943 27.2751 132.124 28.2257C130.347 29.2176 128.321 29.7136 126.047 29.7136ZM126.047 25.2913C127.329 25.2913 128.445 25.002 129.437 24.4647C130.429 23.8861 131.215 23.1008 131.752 22.0675C132.331 20.993 132.62 19.7944 132.62 18.3892C132.62 16.9426 132.331 15.7441 131.752 14.7108C131.215 13.6776 130.429 12.8923 129.437 12.3137C128.445 11.7764 127.329 11.4871 126.088 11.4871C124.848 11.4871 123.732 11.7764 122.74 12.3137C121.747 12.8923 120.962 13.6776 120.383 14.7108C119.804 15.7441 119.515 16.9426 119.515 18.3892C119.515 19.7944 119.804 20.993 120.383 22.0675C120.962 23.1008 121.747 23.8861 122.74 24.4647C123.691 25.002 124.807 25.2913 126.047 25.2913Z" fill="#3AA4CA"/>
<defs>
<linearGradient id="paint0_linear_103_1417" x1="11.6363" y1="18.9167" x2="30.789" y2="19.612" gradientUnits="userSpaceOnUse">
<stop stop-color="#3086A5"/>
<stop offset="0.67" stop-color="#5DA1A0"/>
<stop offset="1" stop-color="#8AC8B4"/>
</linearGradient>
</defs>
</svg>
